<svg width="436" height="686" viewBox="0 0 436 686" fill="none" xmlns="http://www.w3.org/2000/svg">
<g filter="url(#filter0_d_516_593)">
<path d="M306.553 46.4597C310.326 48.277 310.327 53.6496 306.555 55.4683L211.812 101.147C208.493 102.747 204.641 100.329 204.64 96.6438L204.622 5.32097C204.621 1.63585 208.471 -0.783793 211.791 0.8154L306.553 46.4597Z" fill="#F97474" fill-opacity="0.46" shape-rendering="crispEdges"/>
<path d="M98.3053 55.1711C94.5328 53.3531 94.5328 47.9806 98.3054 46.1626L193.058 0.501907C196.378 -1.09786 200.229 1.32112 200.229 5.00623V96.3291C200.229 100.014 196.378 102.433 193.058 100.833L98.3053 55.1711Z" fill="#F97474" fill-opacity="0.46" shape-rendering="crispEdges"/>
<path d="M429.122 104.46C432.895 106.277 432.896 111.65 429.124 113.468L334.381 159.147C331.061 160.747 327.21 158.329 327.209 154.644L327.19 63.321C327.189 59.6359 331.04 57.2162 334.36 58.8154L429.122 104.46Z" fill="#F97474" fill-opacity="0.46" shape-rendering="crispEdges"/>
<path d="M220.874 113.171C217.102 111.353 217.102 105.981 220.874 104.163L315.627 58.5019C318.946 56.9021 322.797 59.3211 322.797 63.0062V154.329C322.797 158.014 318.946 160.433 315.627 158.833L220.874 113.171Z" fill="#F97474" fill-opacity="0.46" shape-rendering="crispEdges"/>
<path d="M304.458 162.46C308.231 164.277 308.232 169.65 304.46 171.468L209.717 217.147C206.397 218.747 202.546 216.329 202.545 212.644L202.526 121.321C202.526 117.636 206.376 115.216 209.696 116.815L304.458 162.46Z" fill="#F97474" fill-opacity="0.46" shape-rendering="crispEdges"/>
<path d="M96.2101 171.171C92.4376 169.353 92.4376 163.981 96.2101 162.163L190.963 116.502C194.283 114.902 198.133 117.321 198.133 121.006V212.329C198.133 216.014 194.283 218.433 190.963 216.833L96.2101 171.171Z" fill="#F97474" fill-opacity="0.46" shape-rendering="crispEdges"/>
<path d="M302.363 277.46C306.136 279.277 306.137 284.65 302.365 286.468L207.622 332.147C204.302 333.747 200.451 331.329 200.45 327.644L200.431 236.321C200.43 232.636 204.281 230.216 207.601 231.815L302.363 277.46Z" fill="#F97474" fill-opacity="0.46" shape-rendering="crispEdges"/>
<path d="M94.115 286.171C90.3424 284.353 90.3424 278.981 94.115 277.163L188.868 231.502C192.187 229.902 196.038 232.321 196.038 236.006V327.329C196.038 331.014 192.187 333.433 188.868 331.833L94.115 286.171Z" fill="#F97474" fill-opacity="0.46" shape-rendering="crispEdges"/>
<path d="M300.268 392.46C304.041 394.277 304.042 399.65 300.27 401.468L205.526 447.147C202.207 448.747 198.356 446.329 198.355 442.644L198.336 351.321C198.335 347.636 202.186 345.216 205.506 346.815L300.268 392.46Z" fill="#F97474" fill-opacity="0.46" shape-rendering="crispEdges"/>
<path d="M92.0198 401.171C88.2473 399.353 88.2473 393.981 92.0198 392.163L186.772 346.502C190.092 344.902 193.943 347.321 193.943 351.006V442.329C193.943 446.014 190.092 448.433 186.772 446.833L92.0198 401.171Z" fill="#F97474" fill-opacity="0.46" shape-rendering="crispEdges"/>
<path d="M298.172 507.46C301.945 509.277 301.946 514.65 298.174 516.468L203.431 562.147C200.112 563.747 196.26 561.329 196.26 557.644L196.241 466.321C196.24 462.636 200.09 460.216 203.41 461.815L298.172 507.46Z" fill="#F97474" fill-opacity="0.46" shape-rendering="crispEdges"/>
<path d="M89.9246 516.171C86.1521 514.353 86.1521 508.981 89.9246 507.163L184.677 461.502C187.997 459.902 191.848 462.321 191.848 466.006V557.329C191.848 561.014 187.997 563.433 184.677 561.833L89.9246 516.171Z" fill="#F97474" fill-opacity="0.46" shape-rendering="crispEdges"/>
<path d="M296.077 622.46C299.85 624.277 299.851 629.65 296.079 631.468L201.336 677.147C198.017 678.747 194.165 676.329 194.164 672.644L194.146 581.321C194.145 577.636 197.995 575.216 201.315 576.815L296.077 622.46Z" fill="#F97474" fill-opacity="0.46" shape-rendering="crispEdges"/>
<path d="M87.8294 631.171C84.0569 629.353 84.0569 623.981 87.8294 622.163L182.582 576.502C185.902 574.902 189.753 577.321 189.753 581.006V672.329C189.753 676.014 185.902 678.433 182.582 676.833L87.8294 631.171Z" fill="#F97474" fill-opacity="0.46" shape-rendering="crispEdges"/>
<path d="M427.027 219.46C430.8 221.277 430.801 226.65 427.029 228.468L332.285 274.147C328.966 275.747 325.115 273.329 325.114 269.644L325.095 178.321C325.094 174.636 328.945 172.216 332.265 173.815L427.027 219.46Z" fill="#F97474" fill-opacity="0.46" shape-rendering="crispEdges"/>
<path d="M218.779 228.171C215.006 226.353 215.006 220.981 218.779 219.163L313.531 173.502C316.851 171.902 320.702 174.321 320.702 178.006V269.329C320.702 273.014 316.851 275.433 313.531 273.833L218.779 228.171Z" fill="#F97474" fill-opacity="0.46" shape-rendering="crispEdges"/>
<path d="M424.932 335.46C428.704 337.277 428.706 342.65 424.933 344.468L330.19 390.147C326.871 391.747 323.02 389.329 323.019 385.644L323 294.321C322.999 290.636 326.849 288.216 330.17 289.815L424.932 335.46Z" fill="#F97474" fill-opacity="0.46" shape-rendering="crispEdges"/>
<path d="M216.684 344.171C212.911 342.353 212.911 336.981 216.684 335.163L311.436 289.502C314.756 287.902 318.607 290.321 318.607 294.006V385.329C318.607 389.014 314.756 391.433 311.436 389.833L216.684 344.171Z" fill="#F97474" fill-opacity="0.46" shape-rendering="crispEdges"/>
<path d="M424.932 450.46C428.704 452.277 428.706 457.65 424.933 459.468L330.19 505.147C326.871 506.747 323.02 504.329 323.019 500.644L323 409.321C322.999 405.636 326.849 403.216 330.17 404.815L424.932 450.46Z" fill="#F97474" fill-opacity="0.46" shape-rendering="crispEdges"/>
<path d="M216.684 459.171C212.911 457.353 212.911 451.981 216.684 450.163L311.436 404.502C314.756 402.902 318.607 405.321 318.607 409.006V500.329C318.607 504.014 314.756 506.433 311.436 504.833L216.684 459.171Z" fill="#F97474" fill-opacity="0.46" shape-rendering="crispEdges"/>
<path d="M424.932 565.46C428.704 567.277 428.706 572.65 424.933 574.468L330.19 620.147C326.871 621.747 323.02 619.329 323.019 615.644L323 524.321C322.999 520.636 326.849 518.216 330.17 519.815L424.932 565.46Z" fill="#F97474" fill-opacity="0.46" shape-rendering="crispEdges"/>
<path d="M216.684 574.171C212.911 572.353 212.911 566.981 216.684 565.163L311.436 519.502C314.756 517.902 318.607 520.321 318.607 524.006V615.329C318.607 619.014 314.756 621.433 311.436 619.833L216.684 574.171Z" fill="#F97474" fill-opacity="0.46" shape-rendering="crispEdges"/>
<path d="M55.5533 46.4597C59.3261 48.277 59.3273 53.6496 55.5551 55.4683L-39.188 101.147C-42.5075 102.747 -46.3588 100.329 -46.3596 96.6438L-46.3784 5.32097C-46.3792 1.63585 -42.5288 -0.783793 -39.2088 0.8154L55.5533 46.4597Z" fill="#F97474" fill-opacity="0.46" shape-rendering="crispEdges"/>
<path d="M-152.695 55.1711C-156.467 53.3531 -156.467 47.9806 -152.695 46.1626L-57.9421 0.501907C-54.6223 -1.09786 -50.7715 1.32112 -50.7715 5.00623V96.3291C-50.7715 100.014 -54.6223 102.433 -57.9421 100.833L-152.695 55.1711Z" fill="#F97474" fill-opacity="0.46" shape-rendering="crispEdges"/>
<path d="M178.122 104.46C181.895 106.277 181.896 111.65 178.124 113.468L83.3806 159.147C80.0612 160.747 76.2099 158.329 76.2091 154.644L76.1903 63.321C76.1895 59.6359 80.0399 57.2162 83.3599 58.8154L178.122 104.46Z" fill="#F97474" fill-opacity="0.46" shape-rendering="crispEdges"/>
<path d="M-30.126 113.171C-33.8985 111.353 -33.8985 105.981 -30.126 104.163L64.6266 58.5019C67.9464 56.9021 71.7972 59.3211 71.7972 63.0062V154.329C71.7972 158.014 67.9464 160.433 64.6266 158.833L-30.126 113.171Z" fill="#F97474" fill-opacity="0.46" shape-rendering="crispEdges"/>
<path d="M53.4581 162.46C57.231 164.277 57.2321 169.65 53.4599 171.468L-41.2832 217.147C-44.6027 218.747 -48.454 216.329 -48.4548 212.644L-48.4736 121.321C-48.4744 117.636 -44.624 115.216 -41.3039 116.815L53.4581 162.46Z" fill="#F97474" fill-opacity="0.46" shape-rendering="crispEdges"/>
<path d="M-154.79 171.171C-158.562 169.353 -158.562 163.981 -154.79 162.163L-60.0373 116.502C-56.7175 114.902 -52.8667 117.321 -52.8667 121.006V212.329C-52.8667 216.014 -56.7175 218.433 -60.0373 216.833L-154.79 171.171Z" fill="#F97474" fill-opacity="0.46" shape-rendering="crispEdges"/>
<path d="M51.3629 277.46C55.1358 279.277 55.1369 284.65 51.3647 286.468L-43.3784 332.147C-46.6979 333.747 -50.5492 331.329 -50.55 327.644L-50.5688 236.321C-50.5696 232.636 -46.7192 230.216 -43.3991 231.815L51.3629 277.46Z" fill="#F97474" fill-opacity="0.46" shape-rendering="crispEdges"/>
<path d="M-156.885 286.171C-160.658 284.353 -160.658 278.981 -156.885 277.163L-62.1324 231.502C-58.8127 229.902 -54.9618 232.321 -54.9618 236.006V327.329C-54.9618 331.014 -58.8127 333.433 -62.1325 331.833L-156.885 286.171Z" fill="#F97474" fill-opacity="0.46" shape-rendering="crispEdges"/>
<path d="M49.2677 392.46C53.0406 394.277 53.0417 399.65 49.2695 401.468L-45.4736 447.147C-48.793 448.747 -52.6444 446.329 -52.6452 442.644L-52.664 351.321C-52.6648 347.636 -48.8144 345.216 -45.4943 346.815L49.2677 392.46Z" fill="#F97474" fill-opacity="0.46" shape-rendering="crispEdges"/>
<path d="M-158.98 401.171C-162.753 399.353 -162.753 393.981 -158.98 392.163L-64.2276 346.502C-60.9079 344.902 -57.057 347.321 -57.057 351.006V442.329C-57.057 446.014 -60.9079 448.433 -64.2276 446.833L-158.98 401.171Z" fill="#F97474" fill-opacity="0.46" shape-rendering="crispEdges"/>
<path d="M47.1725 507.46C50.9454 509.277 50.9465 514.65 47.1743 516.468L-47.5688 562.147C-50.8882 563.747 -54.7396 561.329 -54.7403 557.644L-54.7592 466.321C-54.76 462.636 -50.9096 460.216 -47.5895 461.815L47.1725 507.46Z" fill="#F97474" fill-opacity="0.46" shape-rendering="crispEdges"/>
<path d="M-161.075 516.171C-164.848 514.353 -164.848 508.981 -161.075 507.163L-66.3228 461.502C-63.0031 459.902 -59.1522 462.321 -59.1522 466.006V557.329C-59.1522 561.014 -63.0031 563.433 -66.3228 561.833L-161.075 516.171Z" fill="#F97474" fill-opacity="0.46" shape-rendering="crispEdges"/>
<path d="M45.0773 622.46C48.8502 624.277 48.8513 629.65 45.0792 631.468L-49.664 677.147C-52.9834 678.747 -56.8348 676.329 -56.8355 672.644L-56.8544 581.321C-56.8552 577.636 -53.0048 575.216 -49.6847 576.815L45.0773 622.46Z" fill="#F97474" fill-opacity="0.46" shape-rendering="crispEdges"/>
<path d="M-163.171 631.171C-166.943 629.353 -166.943 623.981 -163.171 622.163L-68.418 576.502C-65.0983 574.902 -61.2474 577.321 -61.2474 581.006V672.329C-61.2474 676.014 -65.0983 678.433 -68.418 676.833L-163.171 631.171Z" fill="#F97474" fill-opacity="0.46" shape-rendering="crispEdges"/>
<path d="M176.027 219.46C179.8 221.277 179.801 226.65 176.029 228.468L81.2854 274.147C77.966 275.747 74.1147 273.329 74.1139 269.644L74.095 178.321C74.0943 174.636 77.9446 172.216 81.2647 173.815L176.027 219.46Z" fill="#F97474" fill-opacity="0.46" shape-rendering="crispEdges"/>
<path d="M-32.2212 228.171C-35.9937 226.353 -35.9937 220.981 -32.2212 219.163L62.5314 173.502C65.8512 171.902 69.702 174.321 69.702 178.006V269.329C69.702 273.014 65.8512 275.433 62.5314 273.833L-32.2212 228.171Z" fill="#F97474" fill-opacity="0.46" shape-rendering="crispEdges"/>
<path d="M173.932 335.46C177.704 337.277 177.706 342.65 173.933 344.468L79.1903 390.147C75.8709 391.747 72.0195 389.329 72.0187 385.644L71.9999 294.321C71.9991 290.636 75.8495 288.216 79.1696 289.815L173.932 335.46Z" fill="#F97474" fill-opacity="0.46" shape-rendering="crispEdges"/>
<path d="M-34.3164 344.171C-38.0889 342.353 -38.0889 336.981 -34.3163 335.163L60.4362 289.502C63.756 287.902 67.6068 290.321 67.6068 294.006V385.329C67.6068 389.014 63.756 391.433 60.4362 389.833L-34.3164 344.171Z" fill="#F97474" fill-opacity="0.46" shape-rendering="crispEdges"/>
<path d="M173.932 450.46C177.704 452.277 177.706 457.65 173.933 459.468L79.1903 505.147C75.8709 506.747 72.0195 504.329 72.0187 500.644L71.9999 409.321C71.9991 405.636 75.8495 403.216 79.1696 404.815L173.932 450.46Z" fill="#F97474" fill-opacity="0.46" shape-rendering="crispEdges"/>
<path d="M-34.3164 459.171C-38.0889 457.353 -38.0889 451.981 -34.3163 450.163L60.4362 404.502C63.756 402.902 67.6068 405.321 67.6068 409.006V500.329C67.6068 504.014 63.756 506.433 60.4362 504.833L-34.3164 459.171Z" fill="#F97474" fill-opacity="0.46" shape-rendering="crispEdges"/>
<path d="M173.932 565.46C177.704 567.277 177.706 572.65 173.933 574.468L79.1903 620.147C75.8709 621.747 72.0195 619.329 72.0187 615.644L71.9999 524.321C71.9991 520.636 75.8495 518.216 79.1696 519.815L173.932 565.46Z" fill="#F97474" fill-opacity="0.46" shape-rendering="crispEdges"/>
<path d="M-34.3164 574.171C-38.0889 572.353 -38.0889 566.981 -34.3163 565.163L60.4362 519.502C63.756 517.902 67.6068 520.321 67.6068 524.006V615.329C67.6068 619.014 63.756 621.433 60.4362 619.833L-34.3164 574.171Z" fill="#F97474" fill-opacity="0.46" shape-rendering="crispEdges"/>
</g>
<defs>
<filter id="filter0_d_516_593" x="-170" y="0" width="605.953" height="685.649" filterUnits="userSpaceOnUse" color-interpolation-filters="sRGB">
<feFlood flood-opacity="0" result="BackgroundImageFix"/>
<feColorMatrix in="SourceAlpha" type="matrix" values="0 0 0 0 0 0 0 0 0 0 0 0 0 0 0 0 0 0 127 0" result="hardAlpha"/>
<feOffset dy="4"/>
<feGaussianBlur stdDeviation="2"/>
<feComposite in2="hardAlpha" operator="out"/>
<feColorMatrix type="matrix" values="0 0 0 0 0 0 0 0 0 0 0 0 0 0 0 0 0 0 0.15 0"/>
<feBlend mode="normal" in2="BackgroundImageFix" result="effect1_dropShadow_516_593"/>
<feBlend mode="normal" in="SourceGraphic" in2="effect1_dropShadow_516_593" result="shape"/>
</filter>
</defs>
</svg>
